# xmcd CD database file
#
# Track frame offsets:
#	150
#	21121
#	39424
#	57401
#	70773
#	85831
#	104104
#	116797
#	134513
#	157416
#	173363
#	189524
#	206414
#	219526
#	231693
#
# Disc length: 3375 seconds
#
# Revision: 0
# Processed by: cddbd v1.5.2PL0 Copyright (c) Steve Scherf et al.
# Submitted via: CDex 1.70beta2
#
DISCID=e00d2d0f
DTITLE=Larry's Blues Band - Good Morning Blues
DYEAR=2003
DGENRE=Blues
TTITLE0=Good Mornin' Blues
TTITLE1=Me And My Son
TTITLE2=Blues Doctor
TTITLE3=30 Years
TTITLE4=Stumble
TTITLE5=I Loved Another Woman
TTITLE6=Lonely Place
TTITLE7=She's A Woman
TTITLE8=Little Red Rooster
TTITLE9=500 Miles
TTITLE10=Politican
TTITLE11=Blow Wind Blow
TTITLE12=Run Run Rudolf
TTITLE13=Snowy Wood
TTITLE14=Sittin' On Top Of The World
EXTD=YEAR: 2003
EXTT0=
EXTT1=
EXTT2=
EXTT3=
EXTT4=
EXTT5=
EXTT6=
EXTT7=
EXTT8=
EXTT9=
EXTT10=
EXTT11=
EXTT12=
EXTT13=
EXTT14=
PLAYORDER=
